<svg xmlns="http://www.w3.org/2000/svg" xmlns:xlink="http://www.w3.org/1999/xlink" contentStyleType="text/css" data-diagram-type="CLASS" height="589px" preserveAspectRatio="none" style="width:410px;height:589px;background:#FFFFFF;" version="1.1" viewBox="0 0 410 589" width="410px" zoomAndPan="magnify"><defs/><g><!--class User--><g class="entity" data-entity="User" data-source-line="1" data-uid="ent0002" id="entity_User"><rect fill="#F1F1F1" height="145.7813" rx="2.5" ry="2.5" style="stroke:#181818;stroke-width:0.5;" width="366.792" x="7" y="7"/><ellipse cx="170.1909" cy="23" fill="#ADD1B2" rx="11" ry="11" style="stroke:#181818;stroke-width:1;"/><path d="M173.1597,28.6406 Q172.5815,28.9375 171.9409,29.0781 Q171.3003,29.2344 170.5972,29.2344 Q168.0972,29.2344 166.769,27.5938 Q165.4565,25.9375 165.4565,22.8125 Q165.4565,19.6875 166.769,18.0313 Q168.0972,16.375 170.5972,16.375 Q171.3003,16.375 171.9409,16.5313 Q172.5972,16.6875 173.1597,16.9844 L173.1597,19.7031 Q172.5347,19.125 171.9409,18.8594 Q171.3472,18.5781 170.7222,18.5781 Q169.3784,18.5781 168.6909,19.6563 Q168.0034,20.7188 168.0034,22.8125 Q168.0034,24.9063 168.6909,25.9844 Q169.3784,27.0469 170.7222,27.0469 Q171.3472,27.0469 171.9409,26.7813 Q172.5347,26.5 173.1597,25.9219 L173.1597,28.6406 Z " fill="#000000"/><text fill="#000000" font-family="sans-serif" font-size="14" lengthAdjust="spacing" textLength="31.9102" x="190.6909" y="27.8467">User</text><line style="stroke:#181818;stroke-width:0.5;" x1="8" x2="372.792" y1="39" y2="39"/><ellipse cx="18" cy="52.6484" fill="none" rx="3" ry="3" style="stroke:#038048;stroke-width:1;"/><text fill="#000000" font-family="sans-serif" font-size="14" lengthAdjust="spacing" textLength="40.1953" x="27" y="55.9951">id: int</text><ellipse cx="18" cy="68.9453" fill="none" rx="3" ry="3" style="stroke:#038048;stroke-width:1;"/><text fill="#000000" font-family="sans-serif" font-size="14" lengthAdjust="spacing" textLength="118.0156" x="27" y="72.292">firstName: string</text><ellipse cx="18" cy="85.2422" fill="none" rx="3" ry="3" style="stroke:#038048;stroke-width:1;"/><text fill="#000000" font-family="sans-serif" font-size="14" lengthAdjust="spacing" textLength="115.9102" x="27" y="88.5889">lastName: string</text><ellipse cx="18" cy="101.5391" fill="none" rx="3" ry="3" style="stroke:#038048;stroke-width:1;"/><text fill="#000000" font-family="sans-serif" font-size="14" lengthAdjust="spacing" textLength="112.8545" x="27" y="104.8857">imageUrl: string</text><ellipse cx="18" cy="117.8359" fill="none" rx="3" ry="3" style="stroke:#038048;stroke-width:1;"/><text fill="#000000" font-family="sans-serif" font-size="14" lengthAdjust="spacing" textLength="76.1797" x="27" y="121.1826">role: string</text><ellipse cx="18" cy="134.1328" fill="none" rx="3" ry="3" style="stroke:#038048;stroke-width:1;"/><text fill="#000000" font-family="sans-serif" font-size="14" lengthAdjust="spacing" textLength="340.792" x="27" y="137.4795">inventory: array&lt;int&gt;  // References Product IDs</text><line style="stroke:#181818;stroke-width:0.5;" x1="8" x2="372.792" y1="144.7813" y2="144.7813"/></g><!--class Product--><g class="entity" data-entity="Product" data-source-line="10" data-uid="ent0003" id="entity_Product"><rect fill="#F1F1F1" height="145.7813" rx="2.5" ry="2.5" style="stroke:#181818;stroke-width:0.5;" width="186.6719" x="68.06" y="436.27"/><ellipse cx="130.291" cy="452.27" fill="#ADD1B2" rx="11" ry="11" style="stroke:#181818;stroke-width:1;"/><path d="M133.2597,457.9106 Q132.6816,458.2075 132.041,458.3481 Q131.4003,458.5044 130.6972,458.5044 Q128.1972,458.5044 126.8691,456.8638 Q125.5566,455.2075 125.5566,452.0825 Q125.5566,448.9575 126.8691,447.3013 Q128.1972,445.645 130.6972,445.645 Q131.4003,445.645 132.041,445.8013 Q132.6972,445.9575 133.2597,446.2544 L133.2597,448.9731 Q132.6347,448.395 132.041,448.1294 Q131.4472,447.8481 130.8222,447.8481 Q129.4785,447.8481 128.791,448.9263 Q128.1035,449.9888 128.1035,452.0825 Q128.1035,454.1763 128.791,455.2544 Q129.4785,456.3169 130.8222,456.3169 Q131.4472,456.3169 132.041,456.0513 Q132.6347,455.77 133.2597,455.1919 L133.2597,457.9106 Z " fill="#000000"/><text fill="#000000" font-family="sans-serif" font-size="14" lengthAdjust="spacing" textLength="53.71" x="150.791" y="457.1167">Product</text><line style="stroke:#181818;stroke-width:0.5;" x1="69.06" x2="253.7319" y1="468.27" y2="468.27"/><ellipse cx="79.06" cy="481.9184" fill="none" rx="3" ry="3" style="stroke:#038048;stroke-width:1;"/><text fill="#000000" font-family="sans-serif" font-size="14" lengthAdjust="spacing" textLength="40.1953" x="88.06" y="485.2651">id: int</text><ellipse cx="79.06" cy="498.2153" fill="none" rx="3" ry="3" style="stroke:#038048;stroke-width:1;"/><text fill="#000000" font-family="sans-serif" font-size="14" lengthAdjust="spacing" textLength="90.3369" x="88.06" y="501.562">brand: string</text><ellipse cx="79.06" cy="514.5122" fill="none" rx="3" ry="3" style="stroke:#038048;stroke-width:1;"/><text fill="#000000" font-family="sans-serif" font-size="14" lengthAdjust="spacing" textLength="92.9482" x="88.06" y="517.8589">model: string</text><ellipse cx="79.06" cy="530.8091" fill="none" rx="3" ry="3" style="stroke:#038048;stroke-width:1;"/><text fill="#000000" font-family="sans-serif" font-size="14" lengthAdjust="spacing" textLength="160.6719" x="88.06" y="534.1557">images: array&lt;string&gt;</text><ellipse cx="79.06" cy="547.1059" fill="none" rx="3" ry="3" style="stroke:#038048;stroke-width:1;"/><text fill="#000000" font-family="sans-serif" font-size="14" lengthAdjust="spacing" textLength="100.96" x="88.06" y="550.4526">stock: number</text><ellipse cx="79.06" cy="563.4028" fill="none" rx="3" ry="3" style="stroke:#038048;stroke-width:1;"/><text fill="#000000" font-family="sans-serif" font-size="14" lengthAdjust="spacing" textLength="98.6494" x="88.06" y="566.7495">price: number</text><line style="stroke:#181818;stroke-width:0.5;" x1="69.06" x2="253.7319" y1="574.0513" y2="574.0513"/></g><!--class Invoice--><g class="entity" data-entity="Invoice" data-source-line="19" data-uid="ent0004" id="entity_Invoice"><rect fill="#F1F1F1" height="129.4844" rx="2.5" ry="2.5" style="stroke:#181818;stroke-width:0.5;" width="188.2988" x="215.25" y="229.78"/><ellipse cx="280.123" cy="245.78" fill="#ADD1B2" rx="11" ry="11" style="stroke:#181818;stroke-width:1;"/><path d="M283.0918,251.4206 Q282.5137,251.7175 281.873,251.8581 Q281.2324,252.0144 280.5293,252.0144 Q278.0293,252.0144 276.7012,250.3737 Q275.3887,248.7175 275.3887,245.5925 Q275.3887,242.4675 276.7012,240.8112 Q278.0293,239.155 280.5293,239.155 Q281.2324,239.155 281.873,239.3112 Q282.5293,239.4675 283.0918,239.7644 L283.0918,242.4831 Q282.4668,241.905 281.873,241.6394 Q281.2793,241.3581 280.6543,241.3581 Q279.3105,241.3581 278.623,242.4362 Q277.9355,243.4987 277.9355,245.5925 Q277.9355,247.6862 278.623,248.7644 Q279.3105,249.8269 280.6543,249.8269 Q281.2793,249.8269 281.873,249.5612 Q282.4668,249.28 283.0918,248.7019 L283.0918,251.4206 Z " fill="#000000"/><text fill="#000000" font-family="sans-serif" font-size="14" lengthAdjust="spacing" textLength="50.0527" x="300.623" y="250.6267">Invoice</text><line style="stroke:#181818;stroke-width:0.5;" x1="216.25" x2="402.5488" y1="261.78" y2="261.78"/><ellipse cx="226.25" cy="275.4284" fill="none" rx="3" ry="3" style="stroke:#038048;stroke-width:1;"/><text fill="#000000" font-family="sans-serif" font-size="14" lengthAdjust="spacing" textLength="40.1953" x="235.25" y="278.7751">id: int</text><ellipse cx="226.25" cy="291.7253" fill="none" rx="3" ry="3" style="stroke:#038048;stroke-width:1;"/><text fill="#000000" font-family="sans-serif" font-size="14" lengthAdjust="spacing" textLength="70.9707" x="235.25" y="295.072">userId: int</text><ellipse cx="226.25" cy="308.0222" fill="none" rx="3" ry="3" style="stroke:#038048;stroke-width:1;"/><text fill="#000000" font-family="sans-serif" font-size="14" lengthAdjust="spacing" textLength="162.2988" x="235.25" y="311.3689">productIds: array&lt;int&gt;</text><ellipse cx="226.25" cy="324.3191" fill="none" rx="3" ry="3" style="stroke:#038048;stroke-width:1;"/><text fill="#000000" font-family="sans-serif" font-size="14" lengthAdjust="spacing" textLength="150.835" x="235.25" y="327.6657">totalAmount: number</text><ellipse cx="226.25" cy="340.6159" fill="none" rx="3" ry="3" style="stroke:#038048;stroke-width:1;"/><text fill="#000000" font-family="sans-serif" font-size="14" lengthAdjust="spacing" textLength="103.9336" x="235.25" y="343.9626">date: datetime</text><line style="stroke:#181818;stroke-width:0.5;" x1="216.25" x2="402.5488" y1="351.2644" y2="351.2644"/></g><!--link User to Product--><g class="link" data-entity-1="User" data-entity-2="Product" data-source-line="27" data-uid="lnk5" id="link_User_Product"><path codeLine="27" d="M166.3,153.16 C159.4,177.25 152.83,204.41 149.4,229.78 C139.98,299.41 145.12,379.65 151.32,436.03 " fill="none" id="User-Product" style="stroke:#181818;stroke-width:1;"/><polygon fill="#000000" points="154.1356,299.5894,157.5487,290.7124,151.6791,290.4016,154.1356,299.5894" style="stroke:#000000;stroke-width:1;"/><text fill="#000000" font-family="sans-serif" font-size="13" lengthAdjust="spacing" textLength="33.5981" x="163.4" y="299.0969">owns</text><text fill="#000000" font-family="sans-serif" font-size="13" lengthAdjust="spacing" textLength="8.271" x="155.635" y="172.9316">1</text><text fill="#000000" font-family="sans-serif" font-size="13" lengthAdjust="spacing" textLength="23.0356" x="126.1979" y="425.1664">0..*</text></g><!--link User to Invoice--><g class="link" data-entity-1="User" data-entity-2="Invoice" data-source-line="28" data-uid="lnk6" id="link_User_Invoice"><path codeLine="28" d="M230.85,153.18 C244.73,177.98 260.16,205.54 273.64,229.63 " fill="none" id="User-Invoice" style="stroke:#181818;stroke-width:1;"/><polygon fill="#000000" points="260.8421,195.7095,258.9889,186.3812,253.8598,189.252,260.8421,195.7095" style="stroke:#000000;stroke-width:1;"/><text fill="#000000" font-family="sans-serif" font-size="13" lengthAdjust="spacing" textLength="22.9785" x="267.4" y="195.8469">has</text><text fill="#000000" font-family="sans-serif" font-size="13" lengthAdjust="spacing" textLength="8.271" x="226.3374" y="172.9535">1</text><text fill="#000000" font-family="sans-serif" font-size="13" lengthAdjust="spacing" textLength="23.0356" x="245.473" y="218.7863">0..*</text></g><!--link Invoice to Product--><g class="link" data-entity-1="Invoice" data-entity-2="Product" data-source-line="29" data-uid="lnk7" id="link_Invoice_Product"><path codeLine="29" d="M264.79,359.61 C248.02,383.7 228.85,411.24 211.61,436.02 " fill="none" id="Invoice-Product" style="stroke:#181818;stroke-width:1;"/><polygon fill="#000000" points="241.5438,401.9403,249.1229,396.1951,244.2985,392.8374,241.5438,401.9403" style="stroke:#000000;stroke-width:1;"/><text fill="#000000" font-family="sans-serif" font-size="13" lengthAdjust="spacing" textLength="55.0278" x="253.4" y="402.3369">contains</text><text fill="#000000" font-family="sans-serif" font-size="13" lengthAdjust="spacing" textLength="8.271" x="251.7911" y="379.1694">1</text><text fill="#000000" font-family="sans-serif" font-size="13" lengthAdjust="spacing" textLength="23.0356" x="192.4227" y="425.1554">1..*</text></g><!--SRC=[RL71QiCm3BtdAqIE6stNgnc1mIwvb37e1xYssfd5Sf6KZZBsxtDg4feI7mnwxrdlINQT5O6z8CDl1Vay1syWa9RY65XqPoCQ4EL0fmBdHmjeYFQ4U-xcAAVkKKSN94ryDM2PxVKrspK0cmryuX4PoQ701oVVEuNsNQg_gdAtd2Eu5FN0blpSA2QFtK966OqBqnHADBbl0zJ70tA1pXmSJj0KewLBoiHYZ3wlihq7pYLpw-L-tC9fKjkznTIJpeszrUmxt1eY3iwtBwgtDQnMKB-irq_rj0q3wOS4cYND6DN0bnqaOpsgjW-TN2ArOUZs3m00]--></g></svg>